<svg width="19" height="20" viewBox="0 0 19 20" fill="none" xmlns="http://www.w3.org/2000/svg">
<path d="M10 16.5H0V13.5C0 10.8 5.3 9.5 8 9.5C9.5 9.5 11.9 9.9 13.7 10.8C12.9 11.1 12.3 11.5 11.7 12C10.6 11.6 9.3 11.4 8 11.4C5 11.4 1.9 12.9 1.9 13.5V14.6H10.2C10.1 15 10 15.5 10 16V16.5ZM19 16C19 17.9 17.4 19.5 15.5 19.5C13.6 19.5 12 17.9 12 16C12 14.1 13.6 12.5 15.5 12.5C17.4 12.5 19 14.1 19 16ZM8 2.5C9.1 2.5 10 3.4 10 4.5C10 5.6 9.1 6.5 8 6.5C6.9 6.5 6 5.6 6 4.5C6 3.4 6.9 2.5 8 2.5ZM8 0.5C5.8 0.5 4 2.3 4 4.5C4 6.7 5.8 8.5 8 8.5C10.2 8.5 12 6.7 12 4.5C12 2.3 10.2 0.5 8 0.5Z" fill="white"/>
</svg>
