<svg width="72" height="64" viewBox="0 0 72 64" fill="none" xmlns="http://www.w3.org/2000/svg">
<path d="M63 0H9C6.61305 0 4.32387 0.919879 2.63604 2.55727C0.948212 4.19467 0 6.41545 0 8.73108V43.6554C0 45.971 0.948212 48.1918 2.63604 49.8292C4.32387 51.4666 6.61305 52.3865 9 52.3865H12V61.1175C12.0014 61.644 12.1501 62.1603 12.4301 62.6113C12.7101 63.0623 13.111 63.4312 13.59 63.6786C14.0591 63.9123 14.5834 64.0219 15.1101 63.9964C15.6368 63.9708 16.1472 63.811 16.59 63.5331L33.9 52.3865H63C65.3869 52.3865 67.6761 51.4666 69.364 49.8292C71.0518 48.1918 72 45.971 72 43.6554V8.73108C72 6.41545 71.0518 4.19467 69.364 2.55727C67.6761 0.919879 65.3869 0 63 0Z" fill="#02C652"/>
<path d="M20 30.2532C23.3137 30.2532 26 27.5669 26 24.2532C26 20.9395 23.3137 18.2532 20 18.2532C16.6863 18.2532 14 20.9395 14 24.2532C14 27.5669 16.6863 30.2532 20 30.2532Z" fill="white"/>
<path d="M36 30.2532C39.3137 30.2532 42 27.5669 42 24.2532C42 20.9395 39.3137 18.2532 36 18.2532C32.6863 18.2532 30 20.9395 30 24.2532C30 27.5669 32.6863 30.2532 36 30.2532Z" fill="white"/>
<path d="M52 30.2532C55.3137 30.2532 58 27.5669 58 24.2532C58 20.9395 55.3137 18.2532 52 18.2532C48.6863 18.2532 46 20.9395 46 24.2532C46 27.5669 48.6863 30.2532 52 30.2532Z" fill="white"/>
</svg>
