<svg width="21" height="22" viewBox="0 0 21 22" fill="none" xmlns="http://www.w3.org/2000/svg">
<path d="M2 17.5V6.5V17.5ZM2 19.5C1.45 19.5 0.979333 19.3043 0.588 18.913C0.196 18.521 0 18.05 0 17.5V6.5C0 5.95 0.196 5.47933 0.588 5.088C0.979333 4.696 1.45 4.5 2 4.5H6V2.5C6 1.95 6.196 1.479 6.588 1.087C6.97933 0.695667 7.45 0.5 8 0.5H12C12.55 0.5 13.021 0.695667 13.413 1.087C13.8043 1.479 14 1.95 14 2.5V4.5H18C18.55 4.5 19.021 4.696 19.413 5.088C19.8043 5.47933 20 5.95 20 6.5V10.775C19.7 10.5583 19.3833 10.3707 19.05 10.212C18.7167 10.054 18.3667 9.91667 18 9.8V6.5H2V17.5H9.075C9.125 17.85 9.2 18.1917 9.3 18.525C9.4 18.8583 9.525 19.1833 9.675 19.5H2ZM8 4.5H12V2.5H8V4.5ZM16 21.5C14.6167 21.5 13.4377 21.0127 12.463 20.038C11.4877 19.0627 11 17.8833 11 16.5C11 15.1167 11.4877 13.9373 12.463 12.962C13.4377 11.9873 14.6167 11.5 16 11.5C17.3833 11.5 18.5627 11.9873 19.538 12.962C20.5127 13.9373 21 15.1167 21 16.5C21 17.8833 20.5127 19.0627 19.538 20.038C18.5627 21.0127 17.3833 21.5 16 21.5ZM17.65 18.85L18.35 18.15L16.5 16.3V13.5H15.5V16.7L17.65 18.85Z" fill="#1C1B1B"/>
</svg>
