<svg width="10" height="11" viewBox="0 0 10 11" fill="none" xmlns="http://www.w3.org/2000/svg">
<path d="M9.47597 1.02356C8.77717 0.324799 7.64426 0.324834 6.94556 1.02364L0.970516 6.99937C0.767351 7.20257 0.624551 7.45812 0.558001 7.73767L0.0102044 10.0384C-0.0199556 10.1651 0.0177595 10.2983 0.10984 10.3904C0.201925 10.4825 0.335185 10.5202 0.461865 10.49L2.76249 9.94227C3.0421 9.87567 3.29774 9.73282 3.50096 9.52957L9.47602 3.55382C10.1747 2.85508 10.1747 1.72227 9.47597 1.02356ZM7.47591 1.55394C7.88171 1.14806 8.53977 1.14804 8.94562 1.55389C9.35142 1.95972 9.35147 2.61768 8.94567 3.02352L8.50002 3.46924L7.03031 1.99958L7.47591 1.55394ZM6.50001 2.52994L7.96971 3.99961L2.9706 8.99927C2.86552 9.10437 2.73334 9.17822 2.58878 9.21267L0.880956 9.61927L1.28761 7.91137C1.32201 7.76687 1.39584 7.63472 1.50088 7.52967L6.50001 2.52994Z" fill="white"/>
</svg>
