<svg width="74" height="72" viewBox="0 0 74 72" fill="none" xmlns="http://www.w3.org/2000/svg">
<path d="M29.6788 28.5352C23.0035 28.5352 17.5723 33.7881 17.5723 40.2458C17.5723 40.9656 18.1754 41.5497 18.9206 41.5497H40.4342C41.1785 41.5497 41.7826 40.9656 41.7826 40.2458C41.7826 33.789 36.3532 28.5352 29.6788 28.5352ZM20.3652 38.9419C21.0205 34.5383 24.9478 31.1429 29.6788 31.1429C34.4088 31.1429 38.3335 34.5383 38.9897 38.9419H20.3652Z" fill="#1C1B1B"/>
<path d="M29.4875 27.5373C33.538 27.5373 36.8334 24.3515 36.8334 20.4363C36.8334 16.5246 33.538 13.3423 29.4875 13.3423C25.4433 13.3423 22.1533 16.5246 22.1533 20.4363C22.1533 24.3515 25.4433 27.5373 29.4875 27.5373ZM29.4875 15.9501C32.0512 15.9501 34.1367 17.9624 34.1367 20.4363C34.1367 22.9137 32.0512 24.9295 29.4875 24.9295C26.9301 24.9295 24.85 22.9137 24.85 20.4363C24.85 17.9624 26.9301 15.9501 29.4875 15.9501Z" fill="#1C1B1B"/>
<path d="M73.6045 63.8272L59.541 50.2363C59.2884 49.9921 58.9451 49.8547 58.5873 49.8547C58.2304 49.8547 57.8862 49.9921 57.6327 50.2363L55.3252 52.4695L51.174 48.4561C56.2384 43.3057 59.3559 36.3508 59.3559 28.6995C59.3559 12.8746 46.0421 4.40151e-08 29.6775 4.40151e-08C13.3137 -0.000869217 0 12.8738 0 28.6987C0 44.5244 13.3137 57.3982 29.6784 57.3982C37.1627 57.3982 44.0043 54.6991 49.2306 50.2633L53.4204 54.314L51.4877 56.1838C50.9618 56.6932 50.9619 57.519 51.4886 58.0275L65.5512 71.6184C65.8037 71.8627 66.1471 72 66.5049 72C66.8626 72 67.2051 71.8627 67.4586 71.6184L73.6054 65.6709C73.858 65.4267 74 65.0946 74 64.7486C73.9991 64.4027 73.8571 64.0715 73.6045 63.8272ZM2.69673 28.6987C2.69673 14.3115 14.8005 2.60691 29.6784 2.60691C44.5562 2.60691 56.66 14.3115 56.66 28.6987C56.66 43.0858 44.5562 54.7904 29.6784 54.7904C14.8005 54.7904 2.69673 43.0858 2.69673 28.6987ZM66.5031 68.8524L54.3489 57.1044L58.5891 53.0014L70.7441 64.7495L66.5031 68.8524Z" fill="#1C1B1B"/>
</svg>
