<svg width="16" height="16" viewBox="0 0 16 16" fill="none" xmlns="http://www.w3.org/2000/svg">
<path d="M8 16C6.88 16 5.83333 15.79 4.86 15.37C3.88667 14.95 3.04 14.38 2.32 13.66C1.6 12.94 1.03333 12.09 0.62 11.11C0.206667 10.13 0 9.08 0 7.96C0 6.84 0.206667 5.79667 0.62 4.83C1.03333 3.86333 1.6 3.02 2.32 2.3C3.04 1.58 3.88667 1.01667 4.86 0.61C5.83333 0.203333 6.88 0 8 0C9.12 0 10.1667 0.203333 11.14 0.61C12.1133 1.01667 12.96 1.58 13.68 2.3C14.4 3.02 14.9667 3.86333 15.38 4.83C15.7933 5.79667 16 6.84 16 7.96C16 9.08 15.7933 10.13 15.38 11.11C14.9667 12.09 14.4 12.94 13.68 13.66C12.96 14.38 12.1133 14.95 11.14 15.37C10.1667 15.79 9.12 16 8 16ZM8 14.84C8.46667 14.36 8.85667 13.81 9.17 13.19C9.48333 12.57 9.74 11.8333 9.94 10.98H6.08C6.26667 11.78 6.51667 12.5 6.83 13.14C7.14333 13.78 7.53333 14.3467 8 14.84ZM6.3 14.6C5.96667 14.0933 5.68 13.5467 5.44 12.96C5.2 12.3733 5 11.7133 4.84 10.98H1.84C2.34667 11.9267 2.93333 12.67 3.6 13.21C4.26667 13.75 5.16667 14.2133 6.3 14.6ZM9.72 14.58C10.68 14.2733 11.5433 13.8133 12.31 13.2C13.0767 12.5867 13.6933 11.8467 14.16 10.98H11.18C11.0067 11.7 10.8033 12.3533 10.57 12.94C10.3367 13.5267 10.0533 14.0733 9.72 14.58ZM1.44 9.78H4.62C4.58 9.42 4.55667 9.09667 4.55 8.81C4.54333 8.52333 4.54 8.24 4.54 7.96C4.54 7.62667 4.54667 7.33 4.56 7.07C4.57333 6.81 4.6 6.52 4.64 6.2H1.44C1.34667 6.52 1.28333 6.80667 1.25 7.06C1.21667 7.31333 1.2 7.61333 1.2 7.96C1.2 8.30667 1.21667 8.61667 1.25 8.89C1.28333 9.16333 1.34667 9.46 1.44 9.78ZM5.86 9.78H10.16C10.2133 9.36667 10.2467 9.03 10.26 8.77C10.2733 8.51 10.28 8.24 10.28 7.96C10.28 7.69333 10.2733 7.43667 10.26 7.19C10.2467 6.94333 10.2133 6.61333 10.16 6.2H5.86C5.80667 6.61333 5.77333 6.94333 5.76 7.19C5.74667 7.43667 5.74 7.69333 5.74 7.96C5.74 8.24 5.74667 8.51 5.76 8.77C5.77333 9.03 5.80667 9.36667 5.86 9.78ZM11.36 9.78H14.56C14.6533 9.46 14.7167 9.16333 14.75 8.89C14.7833 8.61667 14.8 8.30667 14.8 7.96C14.8 7.61333 14.7833 7.31333 14.75 7.06C14.7167 6.80667 14.6533 6.52 14.56 6.2H11.38C11.42 6.66667 11.4467 7.02333 11.46 7.27C11.4733 7.51667 11.48 7.74667 11.48 7.96C11.48 8.25333 11.47 8.53 11.45 8.79C11.43 9.05 11.4 9.38 11.36 9.78ZM11.16 5H14.16C13.72 4.08 13.1167 3.31333 12.35 2.7C11.5833 2.08667 10.7 1.65333 9.7 1.4C10.0333 1.89333 10.3167 2.42667 10.55 3C10.7833 3.57333 10.9867 4.24 11.16 5ZM6.08 5H9.96C9.81333 4.29333 9.56667 3.61 9.22 2.95C8.87333 2.29 8.46667 1.70667 8 1.2C7.57333 1.56 7.21333 2.03333 6.92 2.62C6.62667 3.20667 6.34667 4 6.08 5ZM1.84 5H4.86C5.00667 4.28 5.19333 3.63667 5.42 3.07C5.64667 2.50333 5.93333 1.95333 6.28 1.42C5.28 1.67333 4.40667 2.1 3.66 2.7C2.91333 3.3 2.30667 4.06667 1.84 5Z" fill="black"/>
</svg>
