<svg width="19" height="22" viewBox="0 0 19 22" fill="none" xmlns="http://www.w3.org/2000/svg">
<path d="M7 14.1667V18.125C7 18.7549 7.23705 19.359 7.65901 19.8044C8.08097 20.2498 8.65326 20.5 9.25 20.5H15.25C15.8467 20.5 16.419 20.2498 16.841 19.8044C17.2629 19.359 17.5 18.7549 17.5 18.125L17.5 3.875C17.5 3.24511 17.2629 2.64102 16.841 2.19562C16.419 1.75022 15.8467 1.5 15.25 1.5H9.25C8.65326 1.5 8.08097 1.75022 7.65901 2.19562C7.23705 2.64102 7 3.24511 7 3.875V7.83333M10.75 14.1667L13.75 11M13.75 11L10.75 7.83333M13.75 11L1 11" stroke="black" stroke-width="1.5" stroke-linecap="round" stroke-linejoin="round"/>
</svg>
