<svg width="72" height="72" viewBox="0 0 72 72" fill="none" xmlns="http://www.w3.org/2000/svg">
<path d="M71.365 46.6276C70.2113 44.968 67.6618 44.3283 65.6779 45.201L52.1448 50.8226C51.5879 49.1179 49.9705 47.8995 48.0688 47.8995H36.1009C34.3042 47.8995 31.3613 47.3723 29.6671 46.7468L29.5977 46.7196C29.5916 46.7171 29.5842 46.7152 29.5781 46.7128C27.4529 45.9253 24.1857 45.4555 20.8363 45.4555H15.5943V44.0246C15.5943 42.5158 14.3743 41.2876 12.8754 41.2876H10.0411V40.0323C10.0411 39.5786 9.67578 39.2114 9.2257 39.2114H0.815421C0.365339 39.2114 0 39.5786 0 40.0323V71.1792C0 71.6329 0.365339 72 0.815421 72H9.2257C9.67578 72 10.0411 71.6329 10.0411 71.1792V69.5313H12.8754C14.3742 69.5313 15.5943 68.3032 15.5943 66.7944V64.9691L37.898 70.1785C38.3671 70.2811 38.8872 70.3312 39.4306 70.3312C41.1726 70.3312 43.1516 69.8281 44.4484 68.9868L70.1065 52.032C71.0564 51.4163 71.7208 50.4521 71.9289 49.3858C72.1211 48.4055 71.9203 47.4264 71.3653 46.6284L71.365 46.6276ZM8.4105 70.3549H1.63169V40.8504H8.4105V70.3549ZM12.8763 67.8861H10.042V42.9277H12.8763C13.4768 42.9277 13.9643 43.4198 13.9643 44.023V46.2711V46.2754V46.281V63.9067V63.9253V66.792C13.9643 67.3947 13.4755 67.8867 12.8763 67.8867V67.8861ZM70.3291 49.0657C70.2051 49.6955 69.8029 50.2728 69.2171 50.6517L43.559 67.6065C42.2278 68.4694 39.7939 68.9119 38.2558 68.5732L15.5953 63.2804V47.0946H20.8373C23.9988 47.0946 27.0518 47.5242 29.0063 48.2467L29.0756 48.2739C29.0818 48.2764 29.0891 48.2795 29.0953 48.282C30.9668 48.9749 34.11 49.5386 36.1012 49.5386H48.0692C49.4888 49.5386 50.6535 50.6203 50.7199 52.0129C50.7223 52.0494 50.7223 52.0864 50.7223 52.1235C50.7223 52.2867 50.7064 52.4487 50.6738 52.6174C50.4307 53.8276 49.3347 54.7066 48.0692 54.7066H36.1203C35.7715 54.6917 32.567 54.6275 29.902 56.9448C29.5612 57.2415 29.5238 57.7601 29.8185 58.1031C29.9794 58.291 30.2066 58.3868 30.4356 58.3868C30.6241 58.3868 30.8138 58.3213 30.9679 58.1866C33.2159 56.231 36.0305 56.3458 36.0551 56.3471C36.071 56.3477 36.0852 56.349 36.1011 56.349H48.0691C50.1089 56.349 51.8761 54.9162 52.272 52.9365C52.299 52.7962 52.3205 52.6565 52.3328 52.5162L66.3067 46.7121C66.3122 46.7096 66.3183 46.7078 66.3245 46.7053C67.6115 46.1354 69.3085 46.5298 70.0277 47.5663C70.3273 47.9965 70.4342 48.5287 70.3292 49.0646L70.3291 49.0657Z" fill="#1C1B1B"/>
<path d="M36.0016 13.7639C36.4523 13.7639 36.817 13.3961 36.817 12.943V0.820843C36.817 0.367152 36.4523 0 36.0016 0C35.5509 0 35.1855 0.367769 35.1855 0.820843V12.943C35.1855 13.3961 35.5509 13.7639 36.0016 13.7639Z" fill="#1C1B1B"/>
<path d="M31.3828 15.0457C31.8335 15.0457 32.1988 14.6779 32.1988 14.2242V5.02934C32.1988 4.57565 31.8335 4.2085 31.3828 4.2085C30.9327 4.2085 30.5674 4.57627 30.5674 5.02934V14.2255C30.5674 14.6779 30.9327 15.0457 31.3828 15.0457Z" fill="#1C1B1B"/>
<path d="M26.7613 17.6499C27.2114 17.6499 27.5768 17.2822 27.5768 16.8285V8.53349C27.5768 8.0798 27.2114 7.71265 26.7613 7.71265C26.3107 7.71265 25.9453 8.08042 25.9453 8.53349V16.8285C25.9453 17.2822 26.3107 17.6499 26.7613 17.6499Z" fill="#1C1B1B"/>
<path d="M45.2399 17.6499C45.6906 17.6499 46.0553 17.2822 46.0553 16.8285V8.53349C46.0553 8.0798 45.6906 7.71265 45.2399 7.71265C44.7892 7.71265 44.4238 8.08042 44.4238 8.53349V16.8285C44.4251 17.2822 44.7904 17.6499 45.2399 17.6499Z" fill="#1C1B1B"/>
<path d="M40.6213 15.0457C41.072 15.0457 41.4368 14.6779 41.4368 14.2242L41.4361 5.02934C41.4361 4.57565 41.0714 4.2085 40.6207 4.2085C40.17 4.2085 39.8047 4.57627 39.8047 5.02934V14.2255C39.8059 14.6779 40.1713 15.0457 40.6213 15.0457Z" fill="#1C1B1B"/>
<path d="M36.8178 34.1635H32.3476C31.8976 34.1635 31.5322 34.5313 31.5322 34.9844C31.5322 35.4374 31.8976 35.8052 32.3476 35.8052H35.1845V38.1904C35.1845 38.6441 35.5498 39.0113 35.9999 39.0113C36.45 39.0113 36.8159 38.6441 36.8159 38.1904V35.8052H36.8178C38.8299 35.8052 40.4675 34.1574 40.4675 32.1312C40.4675 30.1043 38.8312 28.4571 36.8178 28.4571H35.1833C34.0695 28.4571 33.165 27.5454 33.165 26.4254C33.165 25.3053 34.0707 24.3936 35.1833 24.3936H39.6516C40.1023 24.3936 40.4676 24.0259 40.4676 23.5722C40.4676 23.1191 40.1023 22.7513 39.6516 22.7513H36.816V20.3667C36.816 19.9131 36.4507 19.5459 36 19.5459C35.5493 19.5459 35.1846 19.9137 35.1846 20.3667V22.7513H35.1827C33.1693 22.7513 31.5329 24.3992 31.5329 26.4254C31.5329 28.451 33.1699 30.0994 35.1827 30.0994H36.8172C37.931 30.0994 38.8355 31.0111 38.8355 32.1324C38.8367 33.2524 37.9317 34.1635 36.8178 34.1635Z" fill="#1C1B1B"/>
<path d="M36.0029 42.216C43.0906 42.216 48.8563 36.4119 48.8563 29.2771C48.8563 22.1423 43.0906 16.3372 36.0029 16.3372C28.9153 16.3372 23.1484 22.1425 23.1484 29.2771C23.1484 36.4119 28.9148 42.216 36.0029 42.216ZM36.0029 17.9792C42.191 17.9792 47.2255 23.0476 47.2255 29.2768C47.2255 35.506 42.1912 40.5745 36.0029 40.5745C29.8149 40.5745 24.7799 35.506 24.7799 29.2768C24.7793 23.0482 29.8142 17.9792 36.0029 17.9792Z" fill="#1C1B1B"/>
</svg>
