<svg width="45" height="46" viewBox="0 0 45 46" fill="none" xmlns="http://www.w3.org/2000/svg">
<path d="M25.169 28.082C27.0322 27.8614 28.8629 27.4217 30.623 26.772C29.1324 25.1208 28.3087 22.9745 28.312 20.75V20.05V20C28.312 18.4087 27.6799 16.8826 26.5546 15.7574C25.4294 14.6321 23.9033 14 22.312 14C20.7207 14 19.1946 14.6321 18.0694 15.7574C16.9441 16.8826 16.312 18.4087 16.312 20V20.75C16.315 22.9746 15.491 25.121 14 26.772C15.733 27.412 17.56 27.857 19.455 28.082M25.169 28.082C23.271 28.3071 21.353 28.3071 19.455 28.082M25.169 28.082C25.3131 28.5319 25.3489 29.0094 25.2736 29.4757C25.1982 29.942 25.0138 30.384 24.7354 30.7656C24.4569 31.1472 24.0923 31.4576 23.6712 31.6716C23.2501 31.8856 22.7844 31.9972 22.312 31.9972C21.8396 31.9972 21.3739 31.8856 20.9528 31.6716C20.5317 31.4576 20.1671 31.1472 19.8886 30.7656C19.6102 30.384 19.4258 29.942 19.3504 29.4757C19.2751 29.0094 19.3109 28.5319 19.455 28.082" stroke="#2D2B2B" stroke-width="1.5" stroke-linecap="round" stroke-linejoin="round"/>
</svg>
