<svg width="74" height="72" viewBox="0 0 74 72" fill="none" xmlns="http://www.w3.org/2000/svg">
<path d="M73.9865 0.982668C73.9761 0.45041 73.5193 0.0218359 72.9528 0.0120863C58.9454 -0.221956 46.531 2.94694 37.0566 9.178C32.1908 12.3695 28.0413 16.4295 24.8457 21.1269C24.8167 21.1695 24.7889 21.2131 24.7632 21.2547L11.1881 21.4492C10.8559 21.4549 10.5461 21.6063 10.3511 21.8593L0.199421 35.0567C-0.0322221 35.358 -0.0644613 35.7553 0.115284 36.0863C0.295584 36.4169 0.657805 36.6247 1.05281 36.6247C1.17956 36.6247 1.30468 36.6032 1.42323 36.5611L13.8777 32.1558L18.5179 34.9727C18.2556 35.9176 18.0174 36.8774 17.8033 37.8526L17.8027 37.8521C17.7328 38.178 17.8404 38.5147 18.0896 38.7498L20.2661 40.7936C15.9292 43.6757 13.8352 48.7118 14.3371 55.1355L14.3377 55.136C14.377 55.6241 14.7901 56.0122 15.3096 56.0491C15.9794 56.0958 16.6356 56.1189 17.277 56.1189C23.177 56.1189 27.8104 54.1547 30.5772 50.4802L32.7528 52.524C32.9495 52.7093 33.2161 52.8135 33.4948 52.814C33.5658 52.8135 33.6363 52.8069 33.7057 52.794C34.7437 52.5944 35.7659 52.3706 36.7718 52.1227L39.7696 56.4819L35.0819 68.1817C34.9186 68.5898 35.0595 69.0502 35.4278 69.315C35.7965 69.5799 36.3063 69.5865 36.6833 69.332L50.7313 59.795C51.0006 59.6123 51.1623 59.3207 51.1678 59.0087L51.3749 46.2555L51.5109 46.178L51.5104 46.1785C56.5111 43.1759 60.8326 39.2776 64.2294 34.7061C70.8626 25.8051 74.2362 14.1426 73.9871 0.983334L73.9865 0.982668ZM40.4735 48.9895L21.852 31.4967C22.2803 30.3609 22.7485 29.2543 23.2577 28.1779L44.008 47.6692C42.8596 48.1465 41.6817 48.5864 40.4737 48.9893L40.4735 48.9895ZM14.5748 30.2235C14.294 30.0536 13.9449 30.0187 13.6324 30.1291L3.9522 33.5531L11.7459 23.4192L23.4902 23.2514L23.4907 23.2509C21.655 26.3325 20.1853 29.5948 19.1096 32.9782L14.5748 30.2235ZM16.3887 54.1257C16.1746 48.7087 18.0682 44.5308 21.7833 42.2164L29.0655 49.0577C26.5992 52.5478 22.1514 54.3283 16.3886 54.1256L16.3887 54.1257ZM19.9842 37.7302C20.3076 36.3171 20.6852 34.941 21.1179 33.6009L38.2373 49.6824C36.8119 50.0884 35.3471 50.4431 33.8419 50.7475L19.9842 37.7302ZM49.0732 58.4881L38.2834 65.8067L41.9281 56.7127C42.0456 56.4191 42.0084 56.0906 41.8276 55.8273L38.8948 51.5672C42.4963 50.557 45.9688 49.1778 49.2496 47.4543L49.0732 58.4881ZM46.0312 46.7779L24.2109 26.2789C32.5017 10.7282 49.4998 1.87209 71.8935 1.97852C72.0044 23.0189 62.5794 38.9862 46.0284 46.774L46.0312 46.7779ZM50.9139 30.3981L50.9133 30.3976C53.7937 30.3976 56.5107 29.1391 58.2639 26.9921C60.0176 24.8451 60.6083 22.0545 59.8625 19.4404C59.1173 16.8263 57.1199 14.687 54.4586 13.6517C51.7974 12.616 48.7744 12.8023 46.2803 14.1552C43.7857 15.5088 42.103 17.8749 41.727 20.5578C41.3511 23.2406 42.3247 25.9353 44.3621 27.8487C46.0957 29.4844 48.4537 30.4012 50.9105 30.3945L50.9139 30.3981ZM45.8475 16.934C47.1905 15.6724 49.012 14.9641 50.9111 14.9636C52.8101 14.9636 54.6312 15.6724 55.974 16.934C57.3169 18.1956 58.0714 19.9068 58.0714 21.6909C58.0714 23.475 57.3169 25.1858 55.974 26.4473C54.6311 27.7089 52.8101 28.4177 50.9111 28.4177C49.012 28.4177 47.1904 27.7089 45.8475 26.4473C44.4992 25.1883 43.7409 23.4766 43.7409 21.6909C43.7409 19.9047 44.4992 18.193 45.8475 16.934ZM12.0129 43.3065C12.2107 43.4918 12.3216 43.7432 12.3216 44.0055C12.3216 44.2678 12.2107 44.5198 12.0129 44.7051L8.36777 48.1295H8.36831C8.17545 48.3328 7.90228 48.4529 7.61327 48.4611C7.32371 48.4693 7.04289 48.3651 6.838 48.1727C6.63257 47.9807 6.52112 47.7179 6.52877 47.4459C6.53642 47.1739 6.66317 46.9167 6.87898 46.735L10.5247 43.31C10.935 42.9235 11.6009 42.9215 12.0129 43.3065ZM22.8191 61.7321C23.23 62.1181 23.23 62.7438 22.8191 63.1298L15.9111 69.6195V69.6201C15.4948 69.9742 14.8561 69.9593 14.4594 69.5857C14.0628 69.212 14.0486 68.6115 14.4272 68.2219L21.3352 61.7321C21.7461 61.3492 22.4083 61.3492 22.8191 61.7321ZM11.8999 59.2849C12.3108 59.6713 12.3108 60.297 11.8999 60.683L4.26904 67.8508C4.07727 68.0582 3.80301 68.1814 3.51125 68.1911C3.21949 68.2009 2.93649 68.0962 2.72998 67.9021C2.524 67.7081 2.41256 67.4423 2.42294 67.1682C2.43331 66.8941 2.56444 66.6364 2.78461 66.4568L10.4176 59.286C10.8279 58.9036 11.4896 58.903 11.8999 59.2849ZM30.9066 56.5635C31.1039 56.7488 31.2148 57.0003 31.2148 57.2626C31.2148 57.5249 31.1039 57.7769 30.9066 57.9622L28.9715 59.7801C28.7775 59.9798 28.5049 60.0963 28.2175 60.102C27.9301 60.1081 27.652 60.0034 27.4494 59.812C27.2461 59.6205 27.1352 59.3593 27.1423 59.0893C27.1494 58.8193 27.274 58.5637 27.4876 58.382L29.4151 56.5635C29.6123 56.3772 29.8806 56.2725 30.1608 56.2725C30.4406 56.2725 30.7089 56.3772 30.9066 56.5635ZM2.6115 61.0659C2.18644 61.0644 1.80401 60.8232 1.64174 60.4541C1.47947 60.0851 1.56962 59.6606 1.86956 59.3783L8.63873 53.0159C9.05559 52.6761 9.68115 52.6971 10.0718 53.0636C10.4619 53.4306 10.4843 54.0183 10.1226 54.4099L3.35552 60.7759C3.15829 60.9617 2.89069 61.0659 2.6115 61.0659ZM2.06735 55.0895C1.65048 55.4293 1.02492 55.4083 0.634293 55.0418C0.244197 54.6748 0.221805 54.0871 0.583483 53.6955L2.51865 51.8775C2.9295 51.4915 3.59604 51.4915 4.00695 51.8775C4.41786 52.2635 4.4178 52.8897 4.00695 53.2757L2.06735 55.0895ZM10.1019 68.5269C10.5127 68.9134 10.5127 69.5395 10.1019 69.926L8.16614 71.744C7.74982 72.0981 7.11114 72.0832 6.71448 71.7096C6.31784 71.3359 6.30363 70.7354 6.68225 70.3458L8.61797 68.5273V68.5268C9.02828 68.1439 9.69161 68.144 10.1019 68.5269Z" fill="#1C1B1B"/>
</svg>
