<svg width="8" height="9" viewBox="0 0 8 9" fill="none" xmlns="http://www.w3.org/2000/svg">
<path d="M7.78564 4.1846L6.17026 5.57907L6.68306 7.73027C6.71318 7.85045 6.70762 7.97726 6.66709 8.09411C6.62657 8.21096 6.55297 8.31239 6.45594 8.38513C6.3622 8.45606 6.25 8.496 6.13402 8.49972C6.01804 8.50343 5.90368 8.47075 5.8059 8.40594L4.00475 7.22241C3.99975 7.21953 3.9975 7.22067 3.99525 7.22241L2.3213 8.32235C2.21345 8.39353 2.08743 8.42939 1.95965 8.42527C1.83187 8.42114 1.70825 8.37721 1.60487 8.2992C1.49779 8.21888 1.41658 8.10691 1.37188 7.97793C1.32718 7.84895 1.32106 7.70898 1.35433 7.57633L1.83699 5.60715L0.214363 4.1846C0.122446 4.10516 0.0557217 3.99885 0.0228806 3.87951C-0.00996046 3.76018 -0.00739666 3.63335 0.0302381 3.51555C0.0659063 3.3994 0.134499 3.2971 0.227066 3.222C0.319634 3.14689 0.431877 3.10247 0.549153 3.09452L2.65834 2.95244L3.4568 0.885732C3.49928 0.772291 3.57377 0.674785 3.67054 0.605965C3.76731 0.537145 3.88185 0.500213 3.99918 0.5C4.11669 0.500018 4.23199 0.536856 4.32897 0.605686C4.42595 0.674517 4.50062 0.772129 4.5432 0.885732L5.32994 2.94058L7.45081 3.09452C7.56809 3.10246 7.68035 3.14688 7.77292 3.22199C7.86549 3.29709 7.93409 3.3994 7.96976 3.51555C8.0074 3.63335 8.00996 3.76018 7.97712 3.87951C7.94428 3.99885 7.87755 4.10516 7.78564 4.1846Z" fill="#02C652"/>
</svg>
